<!--?xml version="1.0" encoding="UTF-8"?-->
<svg width="53px" height="58px" viewBox="0 0 53 58" version="1.1" xmlns="http://www.w3.org/2000/svg" xmlns:xlink="http://www.w3.org/1999/xlink" style="">
    <!-- Generator: Sketch 47.1 (45422) - http://www.bohemiancoding.com/sketch -->
    <title>Group 7</title>
    <desc>Created with Sketch.</desc>
    <defs></defs>
    <g id="website" stroke="none" stroke-width="1" fill="none" fill-rule="evenodd">
        <g id="Desktop-HD" transform="translate(-694.000000, -23.000000)">
            <g id="menu" transform="translate(417.000000, 25.000000)">
                <g id="Group-7" transform="translate(278.000000, 0.000000)">
                    <path d="M8.832,31.938 C7.85399511,31.1099959 7.3350003,29.898008 7.275,28.302 C7.26299994,27.9779984 7.257,27.4500037 7.257,26.718 C7.257,25.9739963 7.26299994,25.4340017 7.275,25.098 C7.3350003,23.5379922 7.85999505,22.3350042 8.85,21.489 C9.84000495,20.6429958 11.1809915,20.22 12.873,20.22 C13.9410053,20.22 14.8979958,20.3939983 15.744,20.742 C16.5900042,21.0900017 17.2589975,21.5939967 17.751,22.254 C18.2430025,22.9140033 18.5009999,23.6939955 18.525,24.594 C18.525,24.7020005 18.4860004,24.7919996 18.408,24.864 C18.3299996,24.9360004 18.2370005,24.972 18.129,24.972 L15.573,24.972 C15.4049992,24.972 15.2820004,24.9390003 15.204,24.873 C15.1259996,24.8069997 15.0570003,24.6840009 14.997,24.504 C14.8289992,23.9159971 14.5740017,23.5050012 14.232,23.271 C13.8899983,23.0369988 13.4370028,22.92 12.873,22.92 C11.5169932,22.92 10.8150002,23.6759924 10.767,25.188 C10.7549999,25.5120016 10.749,26.0099966 10.749,26.682 C10.749,27.3540034 10.7549999,27.8639983 10.767,28.212 C10.8150002,29.7240076 11.5169932,30.48 12.873,30.48 C13.4250028,30.48 13.8779982,30.3600012 14.232,30.12 C14.5860018,29.8799988 14.8409992,29.4720029 14.997,28.896 C15.0450002,28.7159991 15.1109996,28.5930003 15.195,28.527 C15.2790004,28.4609997 15.4049992,28.428 15.573,28.428 L18.129,28.428 C18.2370005,28.428 18.3299996,28.4639996 18.408,28.536 C18.4860004,28.6080004 18.525,28.6979995 18.525,28.806 C18.5009999,29.7060045 18.2430025,30.4859967 17.751,31.146 C17.2589975,31.8060033 16.5900042,32.3099983 15.744,32.658 C14.8979958,33.0060017 13.9410053,33.18 12.873,33.18 C11.1569914,33.18 9.81000489,32.7660041 8.832,31.938 Z M20.496,32.865 C20.4059995,32.7749996 20.361,32.6700006 20.361,32.55 L20.361,20.868 C20.361,20.7359993 20.4029996,20.6250004 20.487,20.535 C20.5710004,20.4449995 20.6789993,20.4 20.811,20.4 L26.373,20.4 C27.8970076,20.4 29.0309963,20.7119969 29.775,21.336 C30.5190037,21.9600031 30.891,22.8479942 30.891,24 C30.891,24.5760029 30.7380015,25.0739979 30.432,25.494 C30.1259985,25.9140021 29.7870019,26.219999 29.415,26.412 C29.9070025,26.6280011 30.3209983,26.9849975 30.657,27.483 C30.9930017,27.9810025 31.161,28.5419969 31.161,29.166 C31.161,30.3780061 30.762004,31.3199966 29.964,31.992 C29.165996,32.6640034 28.0230074,33 26.535,33 L20.811,33 C20.6909994,33 20.5860004,32.9550005 20.496,32.865 Z M25.995,25.386 C26.4390022,25.386 26.7809988,25.2660012 27.021,25.026 C27.2610012,24.7859988 27.381,24.4740019 27.381,24.09 C27.381,23.7179981 27.2640012,23.4150012 27.03,23.181 C26.7959988,22.9469988 26.4510023,22.83 25.995,22.83 L23.745,22.83 L23.745,25.386 L25.995,25.386 Z M26.157,30.57 C26.6250023,30.57 26.9879987,30.4350014 27.246,30.165 C27.5040013,29.8949986 27.633,29.562002 27.633,29.166 C27.633,28.757998 27.5010013,28.4190013 27.237,28.149 C26.9729987,27.8789986 26.6130023,27.744 26.157,27.744 L23.745,27.744 L23.745,30.57 L26.157,30.57 Z M34.266,31.938 C33.2879951,31.1099959 32.7690003,29.898008 32.709,28.302 C32.6969999,27.9779984 32.691,27.4500037 32.691,26.718 C32.691,25.9739963 32.6969999,25.4340017 32.709,25.098 C32.7690003,23.5379922 33.2939951,22.3350042 34.284,21.489 C35.274005,20.6429958 36.6149915,20.22 38.307,20.22 C39.3750053,20.22 40.3319958,20.3939983 41.178,20.742 C42.0240042,21.0900017 42.6929975,21.5939967 43.185,22.254 C43.6770025,22.9140033 43.9349999,23.6939955 43.959,24.594 C43.959,24.7020005 43.9200004,24.7919996 43.842,24.864 C43.7639996,24.9360004 43.6710005,24.972 43.563,24.972 L41.007,24.972 C40.8389992,24.972 40.7160004,24.9390003 40.638,24.873 C40.5599996,24.8069997 40.4910003,24.6840009 40.431,24.504 C40.2629992,23.9159971 40.0080017,23.5050012 39.666,23.271 C39.3239983,23.0369988 38.8710028,22.92 38.307,22.92 C36.9509932,22.92 36.2490002,23.6759924 36.201,25.188 C36.1889999,25.5120016 36.183,26.0099966 36.183,26.682 C36.183,27.3540034 36.1889999,27.8639983 36.201,28.212 C36.2490002,29.7240076 36.9509932,30.48 38.307,30.48 C38.8590028,30.48 39.3119982,30.3600012 39.666,30.12 C40.0200018,29.8799988 40.2749992,29.4720029 40.431,28.896 C40.4790002,28.7159991 40.5449996,28.5930003 40.629,28.527 C40.7130004,28.4609997 40.8389992,28.428 41.007,28.428 L43.563,28.428 C43.6710005,28.428 43.7639996,28.4639996 43.842,28.536 C43.9200004,28.6080004 43.959,28.6979995 43.959,28.806 C43.9349999,29.7060045 43.6770025,30.4859967 43.185,31.146 C42.6929975,31.8060033 42.0240042,32.3099983 41.178,32.658 C40.3319958,33.0060017 39.3750053,33.18 38.307,33.18 C36.5909914,33.18 35.2440049,32.7660041 34.266,31.938 Z" id="CBC" fill="#FFFFFF" class="OVsnaGOO_0"></path>
                    <path id="Triangle-2" stroke="#FFFFFF" stroke-width="2" d="M0,23L0,15.2620131L25.5,0L51,15.2620131" class="OVsnaGOO_1"></path>
                    <path id="Triangle-2-Copy" stroke="#FFFFFF" stroke-width="2" transform="translate(25.500000, 42.500000) scale(-1, -1) translate(-25.500000, -42.500000) " d="M0,54L0,46.2620131L25.5,31L51,46.2620131" class="OVsnaGOO_2"></path>
                </g>
            </g>
        </g>
    </g>
<style>.OVsnaGOO_0{stroke-dasharray:188 190;stroke-dashoffset:189;animation:OVsnaGOO_draw 1500ms linear 0ms forwards;}.OVsnaGOO_1{stroke-dasharray:68 70;stroke-dashoffset:69;animation:OVsnaGOO_draw 1500ms linear 0ms forwards;}.OVsnaGOO_2{stroke-dasharray:68 70;stroke-dashoffset:69;animation:OVsnaGOO_draw 1500ms linear 0ms forwards;}@keyframes OVsnaGOO_draw{100%{stroke-dashoffset:0;}}@keyframes OVsnaGOO_fade{0%{stroke-opacity:1;}92.98245614035088%{stroke-opacity:1;}100%{stroke-opacity:0;}}</style></svg>